<mxfile host="app.diagrams.net" modified="2024-05-06T01:54:18.072Z" agent="Mozilla/5.0 (Macintosh; Intel Mac OS X 10_15_7) AppleWebKit/605.1.15 (KHTML, like Gecko) Version/17.2.1 Safari/605.1.15" etag="nZT4vmD9Mu5-bLFNCCgE" version="24.3.1" type="device">
  <diagram name="Page-1" id="xuFI9ALSg-wIOWKJBD89">
    <mxGraphModel dx="1275" dy="5499" grid="1" gridSize="10" guides="1" tooltips="1" connect="1" arrows="1" fold="1" page="1" pageScale="1" pageWidth="3300" pageHeight="4681" math="0" shadow="0">
      <root>
        <mxCell id="0" />
        <mxCell id="1" parent="0" />
        <mxCell id="bSALIlR-JHasf0W1wMTP-1" value="ex:DamageDetail" style="swimlane;fontStyle=0;childLayout=stackLayout;horizontal=1;startSize=30;horizontalStack=0;resizeParent=1;resizeParentMax=0;resizeLast=0;collapsible=1;marginBottom=0;whiteSpace=wrap;html=1;" parent="1" vertex="1">
          <mxGeometry x="670" y="810" width="200" height="120" as="geometry" />
        </mxCell>
        <mxCell id="bSALIlR-JHasf0W1wMTP-2" value="ex:damageType" style="text;strokeColor=none;fillColor=none;align=left;verticalAlign=middle;spacingLeft=4;spacingRight=4;overflow=hidden;points=[[0,0.5],[1,0.5]];portConstraint=eastwest;rotatable=0;whiteSpace=wrap;html=1;" parent="bSALIlR-JHasf0W1wMTP-1" vertex="1">
          <mxGeometry y="30" width="200" height="30" as="geometry" />
        </mxCell>
        <mxCell id="bSALIlR-JHasf0W1wMTP-3" value="&lt;a style=&quot;outline: currentcolor; font-family: &amp;quot;Terminal Dosis&amp;quot;, helvetica, arial, sans-serif; margin: 0px; padding: 0px; border: 0px; text-decoration: none; color: rgb(60, 60, 60);&quot; target=&quot;_blank&quot; href=&quot;http://purl.org/dc/terms/description&quot;&gt;dcterms:description&lt;/a&gt;&amp;nbsp;(desc)" style="text;strokeColor=none;fillColor=none;align=left;verticalAlign=middle;spacingLeft=4;spacingRight=4;overflow=hidden;points=[[0,0.5],[1,0.5]];portConstraint=eastwest;rotatable=0;whiteSpace=wrap;html=1;" parent="bSALIlR-JHasf0W1wMTP-1" vertex="1">
          <mxGeometry y="60" width="200" height="30" as="geometry" />
        </mxCell>
        <mxCell id="bSALIlR-JHasf0W1wMTP-4" value="&lt;span style=&quot;text-align: center;&quot;&gt;dcterms:date&lt;/span&gt;" style="text;strokeColor=none;fillColor=none;align=left;verticalAlign=middle;spacingLeft=4;spacingRight=4;overflow=hidden;points=[[0,0.5],[1,0.5]];portConstraint=eastwest;rotatable=0;whiteSpace=wrap;html=1;" parent="bSALIlR-JHasf0W1wMTP-1" vertex="1">
          <mxGeometry y="90" width="200" height="30" as="geometry" />
        </mxCell>
        <mxCell id="bSALIlR-JHasf0W1wMTP-6" value="ex:ShipmentDetail" style="swimlane;fontStyle=0;childLayout=stackLayout;horizontal=1;startSize=30;horizontalStack=0;resizeParent=1;resizeParentMax=0;resizeLast=0;collapsible=1;marginBottom=0;whiteSpace=wrap;html=1;" parent="1" vertex="1">
          <mxGeometry x="330" y="730" width="170" height="120" as="geometry" />
        </mxCell>
        <mxCell id="bSALIlR-JHasf0W1wMTP-8" value="&lt;a style=&quot;outline: currentcolor; font-family: &amp;quot;Terminal Dosis&amp;quot;, helvetica, arial, sans-serif; margin: 0px; padding: 0px; border: 0px; text-decoration: none; color: rgb(60, 60, 60);&quot; target=&quot;_blank&quot; href=&quot;http://purl.org/dc/terms/identifier&quot;&gt;dcterms:identifier&lt;/a&gt;&amp;nbsp;(itemId)" style="text;strokeColor=none;fillColor=none;align=left;verticalAlign=middle;spacingLeft=4;spacingRight=4;overflow=hidden;points=[[0,0.5],[1,0.5]];portConstraint=eastwest;rotatable=0;whiteSpace=wrap;html=1;" parent="bSALIlR-JHasf0W1wMTP-6" vertex="1">
          <mxGeometry y="30" width="170" height="30" as="geometry" />
        </mxCell>
        <mxCell id="bSALIlR-JHasf0W1wMTP-9" value="beavon:quantity" style="text;strokeColor=none;fillColor=none;align=left;verticalAlign=middle;spacingLeft=4;spacingRight=4;overflow=hidden;points=[[0,0.5],[1,0.5]];portConstraint=eastwest;rotatable=0;whiteSpace=wrap;html=1;" parent="bSALIlR-JHasf0W1wMTP-6" vertex="1">
          <mxGeometry y="60" width="170" height="30" as="geometry" />
        </mxCell>
        <mxCell id="bSALIlR-JHasf0W1wMTP-15" value="&lt;a style=&quot;outline: currentcolor; font-family: &amp;quot;Terminal Dosis&amp;quot;, helvetica, arial, sans-serif; margin: 0px; padding: 0px; border: 0px; text-decoration: none; color: rgb(60, 60, 60);&quot; target=&quot;_blank&quot; href=&quot;http://schema.org/address&quot;&gt;schema:address&lt;/a&gt;" style="text;strokeColor=none;fillColor=none;align=left;verticalAlign=middle;spacingLeft=4;spacingRight=4;overflow=hidden;points=[[0,0.5],[1,0.5]];portConstraint=eastwest;rotatable=0;whiteSpace=wrap;html=1;" parent="bSALIlR-JHasf0W1wMTP-6" vertex="1">
          <mxGeometry y="90" width="170" height="30" as="geometry" />
        </mxCell>
        <mxCell id="bSALIlR-JHasf0W1wMTP-10" value="ex:ShipmentRequest" style="swimlane;fontStyle=0;childLayout=stackLayout;horizontal=1;startSize=30;horizontalStack=0;resizeParent=1;resizeParentMax=0;resizeLast=0;collapsible=1;marginBottom=0;whiteSpace=wrap;html=1;" parent="1" vertex="1">
          <mxGeometry x="540" y="680" width="180" height="90" as="geometry" />
        </mxCell>
        <mxCell id="bSALIlR-JHasf0W1wMTP-12" value="&lt;a style=&quot;outline: currentcolor; font-family: &amp;quot;Terminal Dosis&amp;quot;, helvetica, arial, sans-serif; margin: 0px; padding: 0px; border: 0px; text-decoration: none; color: rgb(60, 60, 60);&quot; target=&quot;_blank&quot; href=&quot;http://purl.org/dc/terms/identifier&quot;&gt;dcterms:identifier&lt;/a&gt;&amp;nbsp;(customerId)" style="text;strokeColor=none;fillColor=none;align=left;verticalAlign=middle;spacingLeft=4;spacingRight=4;overflow=hidden;points=[[0,0.5],[1,0.5]];portConstraint=eastwest;rotatable=0;whiteSpace=wrap;html=1;" parent="bSALIlR-JHasf0W1wMTP-10" vertex="1">
          <mxGeometry y="30" width="180" height="30" as="geometry" />
        </mxCell>
        <mxCell id="bSALIlR-JHasf0W1wMTP-13" value="ex:shipmentDetail" style="text;strokeColor=none;fillColor=none;align=left;verticalAlign=middle;spacingLeft=4;spacingRight=4;overflow=hidden;points=[[0,0.5],[1,0.5]];portConstraint=eastwest;rotatable=0;whiteSpace=wrap;html=1;" parent="bSALIlR-JHasf0W1wMTP-10" vertex="1">
          <mxGeometry y="60" width="180" height="30" as="geometry" />
        </mxCell>
        <mxCell id="bSALIlR-JHasf0W1wMTP-43" style="edgeStyle=orthogonalEdgeStyle;rounded=0;orthogonalLoop=1;jettySize=auto;html=1;entryX=0;entryY=0.5;entryDx=0;entryDy=0;endArrow=openThin;endFill=0;" parent="1" source="bSALIlR-JHasf0W1wMTP-16" target="bSALIlR-JHasf0W1wMTP-23" edge="1">
          <mxGeometry relative="1" as="geometry" />
        </mxCell>
        <mxCell id="bSALIlR-JHasf0W1wMTP-59" value="roh:produces&amp;nbsp;" style="edgeLabel;html=1;align=center;verticalAlign=middle;resizable=0;points=[];" parent="bSALIlR-JHasf0W1wMTP-43" vertex="1" connectable="0">
          <mxGeometry x="-0.122" y="-1" relative="1" as="geometry">
            <mxPoint x="3" as="offset" />
          </mxGeometry>
        </mxCell>
        <mxCell id="bSALIlR-JHasf0W1wMTP-60" value="1" style="edgeLabel;html=1;align=center;verticalAlign=middle;resizable=0;points=[];" parent="bSALIlR-JHasf0W1wMTP-43" vertex="1" connectable="0">
          <mxGeometry x="0.6419" y="2" relative="1" as="geometry">
            <mxPoint as="offset" />
          </mxGeometry>
        </mxCell>
        <mxCell id="bSALIlR-JHasf0W1wMTP-16" value="ex:LicenseRequest" style="swimlane;fontStyle=0;childLayout=stackLayout;horizontal=1;startSize=30;horizontalStack=0;resizeParent=1;resizeParentMax=0;resizeLast=0;collapsible=1;marginBottom=0;whiteSpace=wrap;html=1;" parent="1" vertex="1">
          <mxGeometry x="190" y="185" width="240" height="120" as="geometry" />
        </mxCell>
        <mxCell id="bSALIlR-JHasf0W1wMTP-17" value="common:serialNumber" style="text;strokeColor=none;fillColor=none;align=left;verticalAlign=middle;spacingLeft=4;spacingRight=4;overflow=hidden;points=[[0,0.5],[1,0.5]];portConstraint=eastwest;rotatable=0;whiteSpace=wrap;html=1;" parent="bSALIlR-JHasf0W1wMTP-16" vertex="1">
          <mxGeometry y="30" width="240" height="30" as="geometry" />
        </mxCell>
        <mxCell id="bSALIlR-JHasf0W1wMTP-18" value="&lt;span style=&quot;text-align: center;&quot;&gt;dcterms:date (&lt;/span&gt;fromDate)" style="text;strokeColor=none;fillColor=none;align=left;verticalAlign=middle;spacingLeft=4;spacingRight=4;overflow=hidden;points=[[0,0.5],[1,0.5]];portConstraint=eastwest;rotatable=0;whiteSpace=wrap;html=1;" parent="bSALIlR-JHasf0W1wMTP-16" vertex="1">
          <mxGeometry y="60" width="240" height="30" as="geometry" />
        </mxCell>
        <mxCell id="bSALIlR-JHasf0W1wMTP-19" value="&lt;span style=&quot;text-align: center;&quot;&gt;dcterms:date (&lt;/span&gt;toDate)" style="text;strokeColor=none;fillColor=none;align=left;verticalAlign=middle;spacingLeft=4;spacingRight=4;overflow=hidden;points=[[0,0.5],[1,0.5]];portConstraint=eastwest;rotatable=0;whiteSpace=wrap;html=1;" parent="bSALIlR-JHasf0W1wMTP-16" vertex="1">
          <mxGeometry y="90" width="240" height="30" as="geometry" />
        </mxCell>
        <mxCell id="bSALIlR-JHasf0W1wMTP-20" value="ex:License" style="swimlane;fontStyle=0;childLayout=stackLayout;horizontal=1;startSize=30;horizontalStack=0;resizeParent=1;resizeParentMax=0;resizeLast=0;collapsible=1;marginBottom=0;whiteSpace=wrap;html=1;" parent="1" vertex="1">
          <mxGeometry x="560" y="140" width="230" height="180" as="geometry" />
        </mxCell>
        <mxCell id="bSALIlR-JHasf0W1wMTP-21" value="common:serialNumber" style="text;strokeColor=none;fillColor=none;align=left;verticalAlign=middle;spacingLeft=4;spacingRight=4;overflow=hidden;points=[[0,0.5],[1,0.5]];portConstraint=eastwest;rotatable=0;whiteSpace=wrap;html=1;" parent="bSALIlR-JHasf0W1wMTP-20" vertex="1">
          <mxGeometry y="30" width="230" height="30" as="geometry" />
        </mxCell>
        <mxCell id="bSALIlR-JHasf0W1wMTP-22" value="&lt;span style=&quot;text-align: center;&quot;&gt;dcterms:date (&lt;/span&gt;fromDate)" style="text;strokeColor=none;fillColor=none;align=left;verticalAlign=middle;spacingLeft=4;spacingRight=4;overflow=hidden;points=[[0,0.5],[1,0.5]];portConstraint=eastwest;rotatable=0;whiteSpace=wrap;html=1;" parent="bSALIlR-JHasf0W1wMTP-20" vertex="1">
          <mxGeometry y="60" width="230" height="30" as="geometry" />
        </mxCell>
        <mxCell id="bSALIlR-JHasf0W1wMTP-23" value="&lt;span style=&quot;text-align: center;&quot;&gt;dcterms:date (&lt;/span&gt;toDate)" style="text;strokeColor=none;fillColor=none;align=left;verticalAlign=middle;spacingLeft=4;spacingRight=4;overflow=hidden;points=[[0,0.5],[1,0.5]];portConstraint=eastwest;rotatable=0;whiteSpace=wrap;html=1;" parent="bSALIlR-JHasf0W1wMTP-20" vertex="1">
          <mxGeometry y="90" width="230" height="30" as="geometry" />
        </mxCell>
        <mxCell id="bSALIlR-JHasf0W1wMTP-24" value="&lt;span style=&quot;text-align: center;&quot;&gt;prov:generatedAtTime (&lt;/span&gt;generated)" style="text;strokeColor=none;fillColor=none;align=left;verticalAlign=middle;spacingLeft=4;spacingRight=4;overflow=hidden;points=[[0,0.5],[1,0.5]];portConstraint=eastwest;rotatable=0;whiteSpace=wrap;html=1;" parent="bSALIlR-JHasf0W1wMTP-20" vertex="1">
          <mxGeometry y="120" width="230" height="30" as="geometry" />
        </mxCell>
        <mxCell id="bSALIlR-JHasf0W1wMTP-25" value="&lt;a style=&quot;outline: currentcolor; font-family: &amp;quot;Terminal Dosis&amp;quot;, helvetica, arial, sans-serif; margin: 0px; padding: 0px; border: 0px; text-decoration: none; color: rgb(60, 60, 60);&quot; target=&quot;_blank&quot; href=&quot;http://purl.org/dc/terms/identifier&quot;&gt;dcterms:identifier&lt;/a&gt;&amp;nbsp;(licenseId)" style="text;strokeColor=none;fillColor=none;align=left;verticalAlign=middle;spacingLeft=4;spacingRight=4;overflow=hidden;points=[[0,0.5],[1,0.5]];portConstraint=eastwest;rotatable=0;whiteSpace=wrap;html=1;" parent="bSALIlR-JHasf0W1wMTP-20" vertex="1">
          <mxGeometry y="150" width="230" height="30" as="geometry" />
        </mxCell>
        <mxCell id="bSALIlR-JHasf0W1wMTP-26" value="ex:RobotRequest" style="swimlane;fontStyle=0;childLayout=stackLayout;horizontal=1;startSize=30;horizontalStack=0;resizeParent=1;resizeParentMax=0;resizeLast=0;collapsible=1;marginBottom=0;whiteSpace=wrap;html=1;" parent="1" vertex="1">
          <mxGeometry x="60" y="550" width="140" height="90" as="geometry" />
        </mxCell>
        <mxCell id="bSALIlR-JHasf0W1wMTP-27" value="&lt;a style=&quot;outline: currentcolor; font-family: &amp;quot;Terminal Dosis&amp;quot;, helvetica, arial, sans-serif; margin: 0px; padding: 0px; border: 0px; text-decoration: none; color: rgb(60, 60, 60);&quot; target=&quot;_blank&quot; href=&quot;http://www.w3.org/2007/uwa/context/common.owl#model&quot;&gt;common:&lt;/a&gt;model" style="text;strokeColor=none;fillColor=none;align=left;verticalAlign=middle;spacingLeft=4;spacingRight=4;overflow=hidden;points=[[0,0.5],[1,0.5]];portConstraint=eastwest;rotatable=0;whiteSpace=wrap;html=1;" parent="bSALIlR-JHasf0W1wMTP-26" vertex="1">
          <mxGeometry y="30" width="140" height="30" as="geometry" />
        </mxCell>
        <mxCell id="bSALIlR-JHasf0W1wMTP-28" value="beavon:quantity" style="text;strokeColor=none;fillColor=none;align=left;verticalAlign=middle;spacingLeft=4;spacingRight=4;overflow=hidden;points=[[0,0.5],[1,0.5]];portConstraint=eastwest;rotatable=0;whiteSpace=wrap;html=1;" parent="bSALIlR-JHasf0W1wMTP-26" vertex="1">
          <mxGeometry y="60" width="140" height="30" as="geometry" />
        </mxCell>
        <mxCell id="bSALIlR-JHasf0W1wMTP-30" value="&lt;a style=&quot;outline: currentcolor; font-family: &amp;quot;Terminal Dosis&amp;quot;, helvetica, arial, sans-serif; margin: 0px; padding: 0px; border: 0px; text-decoration: none; color: rgb(60, 60, 60); text-align: left;&quot; target=&quot;_blank&quot; href=&quot;http://schema.org/Invoice&quot;&gt;schema:Invoice&lt;/a&gt;" style="swimlane;fontStyle=0;childLayout=stackLayout;horizontal=1;startSize=30;horizontalStack=0;resizeParent=1;resizeParentMax=0;resizeLast=0;collapsible=1;marginBottom=0;whiteSpace=wrap;html=1;" parent="1" vertex="1">
          <mxGeometry x="760" y="560" width="170" height="180" as="geometry" />
        </mxCell>
        <mxCell id="bSALIlR-JHasf0W1wMTP-31" value="&lt;a style=&quot;outline: currentcolor; font-family: &amp;quot;Terminal Dosis&amp;quot;, helvetica, arial, sans-serif; margin: 0px; padding: 0px; border: 0px; text-decoration: none; color: rgb(60, 60, 60);&quot; target=&quot;_blank&quot; href=&quot;http://schema.org/model&quot;&gt;schema:model&lt;/a&gt;" style="text;strokeColor=none;fillColor=none;align=left;verticalAlign=middle;spacingLeft=4;spacingRight=4;overflow=hidden;points=[[0,0.5],[1,0.5]];portConstraint=eastwest;rotatable=0;whiteSpace=wrap;html=1;" parent="bSALIlR-JHasf0W1wMTP-30" vertex="1">
          <mxGeometry y="30" width="170" height="30" as="geometry" />
        </mxCell>
        <mxCell id="bSALIlR-JHasf0W1wMTP-32" value="beavon:quantity" style="text;strokeColor=none;fillColor=none;align=left;verticalAlign=middle;spacingLeft=4;spacingRight=4;overflow=hidden;points=[[0,0.5],[1,0.5]];portConstraint=eastwest;rotatable=0;whiteSpace=wrap;html=1;" parent="bSALIlR-JHasf0W1wMTP-30" vertex="1">
          <mxGeometry y="60" width="170" height="30" as="geometry" />
        </mxCell>
        <mxCell id="bSALIlR-JHasf0W1wMTP-33" value="&lt;span style=&quot;text-align: center;&quot;&gt;dcterms:date (&lt;/span&gt;toDate)" style="text;strokeColor=none;fillColor=none;align=left;verticalAlign=middle;spacingLeft=4;spacingRight=4;overflow=hidden;points=[[0,0.5],[1,0.5]];portConstraint=eastwest;rotatable=0;whiteSpace=wrap;html=1;" parent="bSALIlR-JHasf0W1wMTP-30" vertex="1">
          <mxGeometry y="90" width="170" height="30" as="geometry" />
        </mxCell>
        <mxCell id="bSALIlR-JHasf0W1wMTP-34" value="&lt;a style=&quot;outline: currentcolor; font-family: &amp;quot;Terminal Dosis&amp;quot;, helvetica, arial, sans-serif; margin: 0px; padding: 0px; border: 0px; text-decoration: none; color: rgb(60, 60, 60);&quot; target=&quot;_blank&quot; href=&quot;http://schema.org/amount&quot;&gt;schema:amount&lt;/a&gt;" style="text;strokeColor=none;fillColor=none;align=left;verticalAlign=middle;spacingLeft=4;spacingRight=4;overflow=hidden;points=[[0,0.5],[1,0.5]];portConstraint=eastwest;rotatable=0;whiteSpace=wrap;html=1;" parent="bSALIlR-JHasf0W1wMTP-30" vertex="1">
          <mxGeometry y="120" width="170" height="30" as="geometry" />
        </mxCell>
        <mxCell id="bSALIlR-JHasf0W1wMTP-35" value="&lt;a style=&quot;outline: currentcolor; font-family: &amp;quot;Terminal Dosis&amp;quot;, helvetica, arial, sans-serif; margin: 0px; padding: 0px; border: 0px; text-decoration: none; color: rgb(60, 60, 60);&quot; target=&quot;_blank&quot; href=&quot;http://purl.org/dc/terms/identifier&quot;&gt;dcterms:identifier&lt;/a&gt;&amp;nbsp;(accountNo)" style="text;strokeColor=none;fillColor=none;align=left;verticalAlign=middle;spacingLeft=4;spacingRight=4;overflow=hidden;points=[[0,0.5],[1,0.5]];portConstraint=eastwest;rotatable=0;whiteSpace=wrap;html=1;" parent="bSALIlR-JHasf0W1wMTP-30" vertex="1">
          <mxGeometry y="150" width="170" height="30" as="geometry" />
        </mxCell>
        <mxCell id="bSALIlR-JHasf0W1wMTP-37" value="@prefix ex: &amp;lt;http://example.com/&amp;gt; .&lt;div&gt;@prefix dcterms: &amp;lt;http://purl.org/dc/terms/&amp;gt; .&lt;/div&gt;&lt;div&gt;@prefix common: &amp;lt;http://www.w3.org/2007/uwa/context/common.owl#&amp;gt; .&lt;/div&gt;&lt;div&gt;@prefix bevon: &amp;lt;http://rdfs.co/bevon/&amp;gt; .&lt;/div&gt;&lt;div&gt;@prefix foaf: &amp;lt;http://xmlns.com/foaf/0.1/&amp;gt; .&lt;/div&gt;&lt;div&gt;@prefix schema: &amp;lt;http://schema.org/&amp;gt; .&lt;/div&gt;&lt;div&gt;@prefix prov &amp;lt;http://www.w3.org/ns/prov#&amp;gt; .&lt;/div&gt;&lt;div&gt;@prefix roh: &amp;lt;http://w3id.org/roh#&amp;gt; .&lt;/div&gt;&lt;div&gt;@prefix cito: &amp;lt;&lt;span style=&quot;font-family: sans-serif; text-align: justify; white-space: normal; background-color: white;&quot;&gt;http://purl.org/spar/cito&lt;/span&gt;&amp;gt; .&lt;/div&gt;&lt;div&gt;@prefix akt: &amp;lt;http://www.aktors.org/ontology/portal#&amp;gt; .&lt;/div&gt;" style="text;html=1;align=left;verticalAlign=middle;resizable=0;points=[];autosize=1;strokeColor=none;fillColor=none;" parent="1" vertex="1">
          <mxGeometry x="10" y="-45" width="410" height="150" as="geometry" />
        </mxCell>
        <mxCell id="bSALIlR-JHasf0W1wMTP-44" value="foaf:Person" style="swimlane;fontStyle=0;childLayout=stackLayout;horizontal=1;startSize=30;horizontalStack=0;resizeParent=1;resizeParentMax=0;resizeLast=0;collapsible=1;marginBottom=0;whiteSpace=wrap;html=1;" parent="1" vertex="1">
          <mxGeometry x="380" y="350" width="140" height="90" as="geometry" />
        </mxCell>
        <mxCell id="bSALIlR-JHasf0W1wMTP-45" value="foaf:firstName" style="text;strokeColor=none;fillColor=none;align=left;verticalAlign=middle;spacingLeft=4;spacingRight=4;overflow=hidden;points=[[0,0.5],[1,0.5]];portConstraint=eastwest;rotatable=0;whiteSpace=wrap;html=1;" parent="bSALIlR-JHasf0W1wMTP-44" vertex="1">
          <mxGeometry y="30" width="140" height="30" as="geometry" />
        </mxCell>
        <mxCell id="bSALIlR-JHasf0W1wMTP-46" value="foaf:lastName" style="text;strokeColor=none;fillColor=none;align=left;verticalAlign=middle;spacingLeft=4;spacingRight=4;overflow=hidden;points=[[0,0.5],[1,0.5]];portConstraint=eastwest;rotatable=0;whiteSpace=wrap;html=1;" parent="bSALIlR-JHasf0W1wMTP-44" vertex="1">
          <mxGeometry y="60" width="140" height="30" as="geometry" />
        </mxCell>
        <mxCell id="bSALIlR-JHasf0W1wMTP-70" style="edgeStyle=orthogonalEdgeStyle;rounded=0;orthogonalLoop=1;jettySize=auto;html=1;entryX=0.5;entryY=0;entryDx=0;entryDy=0;endArrow=open;endFill=0;" parent="1" source="bSALIlR-JHasf0W1wMTP-48" target="bSALIlR-JHasf0W1wMTP-6" edge="1">
          <mxGeometry relative="1" as="geometry" />
        </mxCell>
        <mxCell id="bSALIlR-JHasf0W1wMTP-71" value="cito:providesDataFor" style="edgeLabel;html=1;align=center;verticalAlign=middle;resizable=0;points=[];" parent="bSALIlR-JHasf0W1wMTP-70" vertex="1" connectable="0">
          <mxGeometry x="-0.0143" relative="1" as="geometry">
            <mxPoint as="offset" />
          </mxGeometry>
        </mxCell>
        <mxCell id="bSALIlR-JHasf0W1wMTP-81" value="0..*" style="edgeLabel;html=1;align=center;verticalAlign=middle;resizable=0;points=[];" parent="bSALIlR-JHasf0W1wMTP-70" vertex="1" connectable="0">
          <mxGeometry x="0.6836" y="1" relative="1" as="geometry">
            <mxPoint as="offset" />
          </mxGeometry>
        </mxCell>
        <mxCell id="bSALIlR-JHasf0W1wMTP-79" style="edgeStyle=orthogonalEdgeStyle;rounded=0;orthogonalLoop=1;jettySize=auto;html=1;entryX=0.5;entryY=0;entryDx=0;entryDy=0;endArrow=open;endFill=0;" parent="1" source="bSALIlR-JHasf0W1wMTP-48" target="bSALIlR-JHasf0W1wMTP-10" edge="1">
          <mxGeometry relative="1" as="geometry">
            <Array as="points">
              <mxPoint x="360" y="600" />
              <mxPoint x="630" y="600" />
            </Array>
          </mxGeometry>
        </mxCell>
        <mxCell id="bSALIlR-JHasf0W1wMTP-80" value="ex:requestsShipment" style="edgeLabel;html=1;align=center;verticalAlign=middle;resizable=0;points=[];" parent="bSALIlR-JHasf0W1wMTP-79" vertex="1" connectable="0">
          <mxGeometry x="-0.1257" relative="1" as="geometry">
            <mxPoint as="offset" />
          </mxGeometry>
        </mxCell>
        <mxCell id="bSALIlR-JHasf0W1wMTP-85" value="0..^" style="edgeLabel;html=1;align=center;verticalAlign=middle;resizable=0;points=[];" parent="bSALIlR-JHasf0W1wMTP-79" vertex="1" connectable="0">
          <mxGeometry x="0.8546" relative="1" as="geometry">
            <mxPoint as="offset" />
          </mxGeometry>
        </mxCell>
        <mxCell id="bSALIlR-JHasf0W1wMTP-48" value="&lt;a style=&quot;outline: currentcolor; font-family: &amp;quot;Terminal Dosis&amp;quot;, helvetica, arial, sans-serif; margin: 0px; padding: 0px; border: 0px; text-decoration: none; color: rgb(60, 60, 60); text-align: left;&quot; target=&quot;_blank&quot; href=&quot;http://schema.org/customer&quot;&gt;ex:Customer&lt;/a&gt;" style="swimlane;fontStyle=0;childLayout=stackLayout;horizontal=1;startSize=30;horizontalStack=0;resizeParent=1;resizeParentMax=0;resizeLast=0;collapsible=1;marginBottom=0;whiteSpace=wrap;html=1;" parent="1" vertex="1">
          <mxGeometry x="290" y="500" width="140" height="60" as="geometry" />
        </mxCell>
        <mxCell id="bSALIlR-JHasf0W1wMTP-67" style="edgeStyle=orthogonalEdgeStyle;rounded=0;orthogonalLoop=1;jettySize=auto;html=1;entryX=0.5;entryY=0;entryDx=0;entryDy=0;endArrow=open;endFill=0;" parent="1" source="bSALIlR-JHasf0W1wMTP-51" target="bSALIlR-JHasf0W1wMTP-30" edge="1">
          <mxGeometry relative="1" as="geometry" />
        </mxCell>
        <mxCell id="bSALIlR-JHasf0W1wMTP-69" value="ex:issue" style="edgeLabel;html=1;align=center;verticalAlign=middle;resizable=0;points=[];" parent="bSALIlR-JHasf0W1wMTP-67" vertex="1" connectable="0">
          <mxGeometry x="-0.2838" relative="1" as="geometry">
            <mxPoint as="offset" />
          </mxGeometry>
        </mxCell>
        <mxCell id="bSALIlR-JHasf0W1wMTP-83" value="0..*" style="edgeLabel;html=1;align=center;verticalAlign=middle;resizable=0;points=[];" parent="bSALIlR-JHasf0W1wMTP-67" vertex="1" connectable="0">
          <mxGeometry x="0.6038" y="2" relative="1" as="geometry">
            <mxPoint as="offset" />
          </mxGeometry>
        </mxCell>
        <mxCell id="bSALIlR-JHasf0W1wMTP-51" value="akt:Employee" style="swimlane;fontStyle=0;childLayout=stackLayout;horizontal=1;startSize=30;horizontalStack=0;resizeParent=1;resizeParentMax=0;resizeLast=0;collapsible=1;marginBottom=0;whiteSpace=wrap;html=1;" parent="1" vertex="1">
          <mxGeometry x="500" y="500" width="140" height="60" as="geometry" />
        </mxCell>
        <mxCell id="bSALIlR-JHasf0W1wMTP-54" style="edgeStyle=orthogonalEdgeStyle;rounded=0;orthogonalLoop=1;jettySize=auto;html=1;entryX=0.484;entryY=1.055;entryDx=0;entryDy=0;entryPerimeter=0;endArrow=open;endFill=0;" parent="1" source="bSALIlR-JHasf0W1wMTP-48" target="bSALIlR-JHasf0W1wMTP-46" edge="1">
          <mxGeometry relative="1" as="geometry">
            <Array as="points">
              <mxPoint x="350" y="470" />
              <mxPoint x="448" y="470" />
            </Array>
          </mxGeometry>
        </mxCell>
        <mxCell id="bSALIlR-JHasf0W1wMTP-65" value="a" style="edgeLabel;html=1;align=center;verticalAlign=middle;resizable=0;points=[];" parent="bSALIlR-JHasf0W1wMTP-54" vertex="1" connectable="0">
          <mxGeometry x="-0.0795" relative="1" as="geometry">
            <mxPoint as="offset" />
          </mxGeometry>
        </mxCell>
        <mxCell id="bSALIlR-JHasf0W1wMTP-56" style="edgeStyle=orthogonalEdgeStyle;rounded=0;orthogonalLoop=1;jettySize=auto;html=1;entryX=0.469;entryY=0.975;entryDx=0;entryDy=0;entryPerimeter=0;endArrow=openThin;endFill=0;" parent="1" source="bSALIlR-JHasf0W1wMTP-51" target="bSALIlR-JHasf0W1wMTP-25" edge="1">
          <mxGeometry relative="1" as="geometry" />
        </mxCell>
        <mxCell id="bSALIlR-JHasf0W1wMTP-57" value="pro:generated" style="edgeLabel;html=1;align=center;verticalAlign=middle;resizable=0;points=[];" parent="bSALIlR-JHasf0W1wMTP-56" vertex="1" connectable="0">
          <mxGeometry x="-0.0138" y="2" relative="1" as="geometry">
            <mxPoint as="offset" />
          </mxGeometry>
        </mxCell>
        <mxCell id="bSALIlR-JHasf0W1wMTP-58" value="0..*" style="edgeLabel;html=1;align=center;verticalAlign=middle;resizable=0;points=[];" parent="bSALIlR-JHasf0W1wMTP-56" vertex="1" connectable="0">
          <mxGeometry x="0.8367" y="-1" relative="1" as="geometry">
            <mxPoint as="offset" />
          </mxGeometry>
        </mxCell>
        <mxCell id="bSALIlR-JHasf0W1wMTP-61" style="edgeStyle=orthogonalEdgeStyle;rounded=0;orthogonalLoop=1;jettySize=auto;html=1;entryX=0.459;entryY=1.061;entryDx=0;entryDy=0;entryPerimeter=0;endArrow=open;endFill=0;" parent="1" source="bSALIlR-JHasf0W1wMTP-48" target="bSALIlR-JHasf0W1wMTP-19" edge="1">
          <mxGeometry relative="1" as="geometry">
            <Array as="points">
              <mxPoint x="260" y="530" />
              <mxPoint x="260" y="402" />
              <mxPoint x="300" y="402" />
            </Array>
          </mxGeometry>
        </mxCell>
        <mxCell id="bSALIlR-JHasf0W1wMTP-62" value="ex:requestsLicense" style="edgeLabel;html=1;align=center;verticalAlign=middle;resizable=0;points=[];" parent="bSALIlR-JHasf0W1wMTP-61" vertex="1" connectable="0">
          <mxGeometry x="-0.2943" y="2" relative="1" as="geometry">
            <mxPoint as="offset" />
          </mxGeometry>
        </mxCell>
        <mxCell id="bSALIlR-JHasf0W1wMTP-72" value="0..*" style="edgeLabel;html=1;align=center;verticalAlign=middle;resizable=0;points=[];" parent="bSALIlR-JHasf0W1wMTP-61" vertex="1" connectable="0">
          <mxGeometry x="0.8636" y="-1" relative="1" as="geometry">
            <mxPoint as="offset" />
          </mxGeometry>
        </mxCell>
        <mxCell id="bSALIlR-JHasf0W1wMTP-63" style="edgeStyle=orthogonalEdgeStyle;rounded=0;orthogonalLoop=1;jettySize=auto;html=1;entryX=1.009;entryY=-0.071;entryDx=0;entryDy=0;entryPerimeter=0;endArrow=open;endFill=0;" parent="1" source="bSALIlR-JHasf0W1wMTP-48" target="bSALIlR-JHasf0W1wMTP-28" edge="1">
          <mxGeometry relative="1" as="geometry" />
        </mxCell>
        <mxCell id="bSALIlR-JHasf0W1wMTP-64" value="ex:requestsRobots" style="edgeLabel;html=1;align=center;verticalAlign=middle;resizable=0;points=[];" parent="bSALIlR-JHasf0W1wMTP-63" vertex="1" connectable="0">
          <mxGeometry x="0.2712" y="-3" relative="1" as="geometry">
            <mxPoint x="24" as="offset" />
          </mxGeometry>
        </mxCell>
        <mxCell id="bSALIlR-JHasf0W1wMTP-73" value="0..*" style="edgeLabel;html=1;align=center;verticalAlign=middle;resizable=0;points=[];" parent="bSALIlR-JHasf0W1wMTP-63" vertex="1" connectable="0">
          <mxGeometry x="0.807" relative="1" as="geometry">
            <mxPoint x="13" as="offset" />
          </mxGeometry>
        </mxCell>
        <mxCell id="bSALIlR-JHasf0W1wMTP-76" style="edgeStyle=orthogonalEdgeStyle;rounded=0;orthogonalLoop=1;jettySize=auto;html=1;entryX=0.5;entryY=0;entryDx=0;entryDy=0;endArrow=open;endFill=0;" parent="1" source="bSALIlR-JHasf0W1wMTP-13" target="bSALIlR-JHasf0W1wMTP-6" edge="1">
          <mxGeometry relative="1" as="geometry">
            <Array as="points">
              <mxPoint x="520" y="755" />
              <mxPoint x="520" y="710" />
              <mxPoint x="415" y="710" />
            </Array>
          </mxGeometry>
        </mxCell>
        <mxCell id="bSALIlR-JHasf0W1wMTP-82" value="1" style="edgeLabel;html=1;align=center;verticalAlign=middle;resizable=0;points=[];" parent="bSALIlR-JHasf0W1wMTP-76" vertex="1" connectable="0">
          <mxGeometry x="0.5101" y="-1" relative="1" as="geometry">
            <mxPoint as="offset" />
          </mxGeometry>
        </mxCell>
        <mxCell id="bSALIlR-JHasf0W1wMTP-77" style="edgeStyle=orthogonalEdgeStyle;rounded=0;orthogonalLoop=1;jettySize=auto;html=1;entryX=0;entryY=0.5;entryDx=0;entryDy=0;endArrow=open;endFill=0;" parent="1" source="bSALIlR-JHasf0W1wMTP-9" target="bSALIlR-JHasf0W1wMTP-3" edge="1">
          <mxGeometry relative="1" as="geometry" />
        </mxCell>
        <mxCell id="bSALIlR-JHasf0W1wMTP-78" value="&lt;a style=&quot;white-space: normal; outline: currentcolor; font-family: &amp;quot;Terminal Dosis&amp;quot;, helvetica, arial, sans-serif; margin: 0px; padding: 0px; border: 0px; text-decoration: none; color: rgb(60, 60, 60); text-align: left;&quot; target=&quot;_blank&quot; href=&quot;http://w3id.org/roh#produces&quot;&gt;roh:produces&lt;/a&gt;" style="edgeLabel;html=1;align=center;verticalAlign=middle;resizable=0;points=[];" parent="bSALIlR-JHasf0W1wMTP-77" vertex="1" connectable="0">
          <mxGeometry x="-0.0298" y="1" relative="1" as="geometry">
            <mxPoint as="offset" />
          </mxGeometry>
        </mxCell>
        <mxCell id="bSALIlR-JHasf0W1wMTP-84" value="0..*" style="edgeLabel;html=1;align=center;verticalAlign=middle;resizable=0;points=[];" parent="bSALIlR-JHasf0W1wMTP-77" vertex="1" connectable="0">
          <mxGeometry x="0.7393" relative="1" as="geometry">
            <mxPoint as="offset" />
          </mxGeometry>
        </mxCell>
        <mxCell id="CQhRdlL3FklzoJj8wAij-1" style="edgeStyle=orthogonalEdgeStyle;rounded=0;orthogonalLoop=1;jettySize=auto;html=1;entryX=0.484;entryY=1.029;entryDx=0;entryDy=0;entryPerimeter=0;" edge="1" parent="1" source="bSALIlR-JHasf0W1wMTP-51" target="bSALIlR-JHasf0W1wMTP-46">
          <mxGeometry relative="1" as="geometry" />
        </mxCell>
        <mxCell id="CQhRdlL3FklzoJj8wAij-2" value="a" style="edgeLabel;html=1;align=center;verticalAlign=middle;resizable=0;points=[];" vertex="1" connectable="0" parent="CQhRdlL3FklzoJj8wAij-1">
          <mxGeometry x="0.0874" y="-2" relative="1" as="geometry">
            <mxPoint as="offset" />
          </mxGeometry>
        </mxCell>
      </root>
    </mxGraphModel>
  </diagram>
</mxfile>
